<svg width="166" height="166" fill="none" xmlns="http://www.w3.org/2000/svg"><g filter="url(#filter0_dd_745_4971)"><path d="M159 83c0 41.974-34.026 76-76 76S7 124.974 7 83 41.026 7 83 7s76 34.026 76 76z" fill="url(#paint0_linear_745_4971)"/></g><g filter="url(#filter1_dd_745_4971)"><path fill-rule="evenodd" clip-rule="evenodd" d="M83 156.236c40.447 0 73.236-32.789 73.236-73.236S123.447 9.764 83 9.764 9.764 42.553 9.764 83 42.553 156.236 83 156.236zM83 159c41.974 0 76-34.026 76-76S124.974 7 83 7 7 41.026 7 83s34.026 76 76 76z" fill="url(#paint1_linear_745_4971)"/></g><path d="M140.508 88.528h11.625l-8.694 29.018h-11.178l-3.726-13.639-3.726 13.639H113.63L97.336 88.528h14.51l6.909 16.08 5.557-16.08h8.346l4.285 16.08 3.565-16.08z" fill="#000"/><path d="M109.255 128.546H79.393L56.002 89.514V128.6H29.109V37.4h26.893v36.48L78.048 37.4h29.862L79.897 81.697l29.358 46.849z" fill="#000"/><defs><linearGradient id="paint0_linear_745_4971" x1="149.5" y1="147.6" x2="18.939" y2="131.182" gradientUnits="userSpaceOnUse"><stop stop-color="#F2B720"/><stop offset="1" stop-color="#FFEA7C"/></linearGradient><linearGradient id="paint1_linear_745_4971" x1="163.773" y1="159" x2="-.873" y2="149.515" gradientUnits="userSpaceOnUse"><stop stop-color="#FFE145"/><stop offset="1" stop-color="#F7BB24"/></linearGradient><filter id="filter0_dd_745_4971" x="0" y="0" width="166" height="166" filterUnits="userSpaceOnUse" color-interpolation-filters="sRGB"><feFlood flood-opacity="0" result="BackgroundImageFix"/><feColorMatrix in="SourceAlpha" values="0 0 0 0 0 0 0 0 0 0 0 0 0 0 0 0 0 0 127 0" result="hardAlpha"/><feOffset dx="2" dy="2"/><feGaussianBlur stdDeviation="2.5"/><feComposite in2="hardAlpha" operator="out"/><feColorMatrix values="0 0 0 0 0.0196078 0 0 0 0 0.00392157 0 0 0 0 0.0117647 0 0 0 0.25 0"/><feBlend in2="BackgroundImageFix" result="effect1_dropShadow_745_4971"/><feColorMatrix in="SourceAlpha" values="0 0 0 0 0 0 0 0 0 0 0 0 0 0 0 0 0 0 127 0" result="hardAlpha"/><feOffset dx="-2" dy="-2"/><feGaussianBlur stdDeviation="2.5"/><feComposite in2="hardAlpha" operator="out"/><feColorMatrix values="0 0 0 0 1 0 0 0 0 1 0 0 0 0 1 0 0 0 0.7 0"/><feBlend in2="effect1_dropShadow_745_4971" result="effect2_dropShadow_745_4971"/><feBlend in="SourceGraphic" in2="effect2_dropShadow_745_4971" result="shape"/></filter><filter id="filter1_dd_745_4971" x="0" y="0" width="166" height="166" filterUnits="userSpaceOnUse" color-interpolation-filters="sRGB"><feFlood flood-opacity="0" result="BackgroundImageFix"/><feColorMatrix in="SourceAlpha" values="0 0 0 0 0 0 0 0 0 0 0 0 0 0 0 0 0 0 127 0" result="hardAlpha"/><feOffset dx="2" dy="2"/><feGaussianBlur stdDeviation="2.5"/><feComposite in2="hardAlpha" operator="out"/><feColorMatrix values="0 0 0 0 0.0196078 0 0 0 0 0.00392157 0 0 0 0 0.0117647 0 0 0 0.25 0"/><feBlend in2="BackgroundImageFix" result="effect1_dropShadow_745_4971"/><feColorMatrix in="SourceAlpha" values="0 0 0 0 0 0 0 0 0 0 0 0 0 0 0 0 0 0 127 0" result="hardAlpha"/><feOffset dx="-2" dy="-2"/><feGaussianBlur stdDeviation="2.5"/><feComposite in2="hardAlpha" operator="out"/><feColorMatrix values="0 0 0 0 1 0 0 0 0 1 0 0 0 0 1 0 0 0 0.7 0"/><feBlend in2="effect1_dropShadow_745_4971" result="effect2_dropShadow_745_4971"/><feBlend in="SourceGraphic" in2="effect2_dropShadow_745_4971" result="shape"/></filter></defs></svg>