<svg width="232" height="51" fill="none" xmlns="http://www.w3.org/2000/svg"><path d="M26.119 29.982h-9.732l-7.623-12.84V30H0V0h8.764v12L15.95 0h9.731l-9.129 14.571 9.568 15.411z" fill="#000"/><path d="M49.852 9h8.413l-6.292 21h-8.09l-2.696-9.87L38.491 30H30.4L24.11 9h8.413l2.498 11.637L38.131 9h6.04l3.101 11.637L49.852 9zm11.427 21V9h8.036v21H61.28zm35.159 0h-9.06l-3.497-4.706-3.525 4.697h-9.032l8.06-10.74L71.672 9h9.032l3.176 4.242L87.048 9h9.032l-7.664 10.25L96.438 30zm49.481-21.995a10.23 10.23 0 014.288.79 9.875 9.875 0 013.516 2.488c1.977 2.14 3.043 4.919 2.987 7.782v1.008h-19.842c.18 2.197 1.237 4.242 2.95 5.705a10.284 10.284 0 005.292 2.117c1.94.198 3.898-.151 5.636-1.004a7.308 7.308 0 002.968-2.778l1.922 1.095a9.59 9.59 0 01-3.843 3.506 12.274 12.274 0 01-5.683 1.28 11.6 11.6 0 01-4.461-.728 11.26 11.26 0 01-3.798-2.366 10.607 10.607 0 01-2.469-3.62 10.28 10.28 0 01-.764-4.268 10.462 10.462 0 01.759-4.23 10.769 10.769 0 012.41-3.613 10.962 10.962 0 013.722-2.401c1.4-.545 2.901-.804 4.41-.763zm0 2.016a9.007 9.007 0 00-6.21 2.226c-1.667 1.51-2.681 3.569-2.841 5.766h17.575c-.106-2.228-1.101-4.331-2.778-5.871a8.47 8.47 0 00-5.746-2.121zM180.665 0h2.166v29.53h-2.166v-4.887a9.95 9.95 0 01-3.79 3.92 10.71 10.71 0 01-5.522 1.433 11.582 11.582 0 01-4.425-.747 11.35 11.35 0 01-3.776-2.365 11 11 0 01-2.534-3.61 10.755 10.755 0 010-8.572 11 11 0 012.534-3.61 11.349 11.349 0 013.776-2.365 11.58 11.58 0 014.425-.747 10.71 10.71 0 015.522 1.433 9.898 9.898 0 013.79 3.92V0zm-15.701 25.355a9.374 9.374 0 006.519 2.619 9.378 9.378 0 006.52-2.619 8.992 8.992 0 002.663-6.367 8.99 8.99 0 00-2.663-6.367 9.378 9.378 0 00-6.52-2.619 9.374 9.374 0 00-6.519 2.618 8.992 8.992 0 00-2.663 6.368 8.99 8.99 0 002.663 6.367zM189.863 30V9h2.009v21h-2.009zm-60.516-18.786a8.148 8.148 0 00-2.839-1.737 8.189 8.189 0 00-3.303-.459c-2.709 0-3.811.386-5.003 1.138a6.391 6.391 0 00-2.204 2.41 6.488 6.488 0 00-2.213-2.41c-1.192-.752-2.348-1.138-4.904-1.138-2.863 0-4.796.735-6.241 2.196a8.393 8.393 0 00-1.708 2.857 8.35 8.35 0 00-.46 3.29V31h2.204v-7.913c0-1.926-.099-3.889 0-5.816a7.129 7.129 0 011.156-3.665 6.226 6.226 0 014.055-2.338 5.952 5.952 0 013.288.286 5.41 5.41 0 012.339 1.999 9.235 9.235 0 011.391 5.125V31h2.222v-7.169c0-2.787-.361-5.843.515-8.513a6.048 6.048 0 011.401-2.302 6.114 6.114 0 012.266-1.476 6.157 6.157 0 015.265.471 6.62 6.62 0 011.85 2.032c.467.798.759 1.684.859 2.601.226 2.347.271 4.708.136 7.062v7.258h2.167V17.361a8.384 8.384 0 00-2.239-6.147z" fill="#000"/><path fill-rule="evenodd" clip-rule="evenodd" d="M217.991 25.2c-2.081 2.898-5.579 4.8-9.543 4.8-6.381 0-11.553-4.925-11.553-11s5.172-11 11.553-11C214.828 8 220 12.925 220 19v11h-2.009v-4.8zm0-6.2c0 4.97-4.273 9-9.543 9-5.271 0-9.544-4.03-9.544-9s4.273-9 9.544-9c5.27 0 9.543 4.03 9.543 9z" fill="#000"/><path d="M6.57 39h3.738c2.256 0 3.39.838 3.39 2.526.044.475-.087.95-.369 1.34a2.118 2.118 0 01-1.176.804 2.7 2.7 0 011.545.826c.368.458.557 1.026.535 1.604 0 1.82-1.183 2.718-3.55 2.718H6.606L6.57 39zm1.134 1.03v3.197h2.667c1.47 0 2.205-.54 2.205-1.605a1.5 1.5 0 00-.097-.646 1.55 1.55 0 00-.364-.551 2.569 2.569 0 00-1.744-.443l-2.667.048zm0 4.178V47.8h3.14c1.52 0 2.28-.598 2.28-1.796a1.595 1.595 0 00-.13-.72c-.1-.229-.25-.432-.443-.597a2.564 2.564 0 00-1.707-.479h-3.14zm9.842.54h2.577a2.97 2.97 0 012.306.756c.449.492.694 1.14.682 1.81a3.11 3.11 0 01-.141.938 2.34 2.34 0 01-.464.808c-.248.29-.568.505-.928.625a4.028 4.028 0 01-1.455.222h-3.698v-7.634h1.108l.013 2.475zm0 4.13h2.705c1.198 0 1.804-.521 1.804-1.564 0-1.042-.605-1.524-1.804-1.524h-2.705v3.088zm7.64 1.029H24.09v-7.634h1.096v7.634zm15.33.003h-1.095v-5.774l-2.738 3.193-2.75-3.193v5.773h-1.082v-7.636h.65l3.182 3.7 3.17-3.7h.663v7.636zm6.149-7.633a3.92 3.92 0 012.149.584 3.48 3.48 0 011.318 1.586c.128.322.204.66.224 1.003.037.303.006.61-.092.901H43.87c-.016.35.049.7.19 1.022.141.323.356.61.627.844.582.48 1.33.734 2.096.71a4.71 4.71 0 002.637-.799l.607.648a5.278 5.278 0 01-3.27 1.13 4.094 4.094 0 01-1.578-.243 3.977 3.977 0 01-1.349-.824 3.62 3.62 0 01-.862-1.256 3.508 3.508 0 01-.259-1.486 3.73 3.73 0 011.082-2.716 3.733 3.733 0 011.312-.852 3.861 3.861 0 011.562-.252zm0 1.003a2.726 2.726 0 00-1.02.16 2.653 2.653 0 00-.879.525c-.247.21-.448.464-.59.75a2.29 2.29 0 00-.24.913h5.273a1.745 1.745 0 00-.171-.85 2.433 2.433 0 00-.923-1.092 2.711 2.711 0 00-1.45-.406zm11.371 6.63H57.03v-2.998A2.67 2.67 0 0156 47.929c-.424.23-.897.329-1.368.286-2.11 0-3.165-1.277-3.165-3.831v-2.111h1.02v2.059a3.54 3.54 0 00.515 2.137c.227.255.505.45.813.57.308.12.636.16.961.12.321.035.645-.011.947-.136a2.1 2.1 0 00.792-.58 3.041 3.041 0 00.527-1.838v-2.332h.995v7.636zm6.018-6.582v6.581h-1.085v-6.58h-2.743v-1.056h6.57v1.055h-2.742zm11.503 6.504h-.787v-1.677a3.38 3.38 0 01-1.29 1.27 3.408 3.408 0 01-1.807.483 3.648 3.648 0 01-1.468-.271 3.603 3.603 0 01-1.229-.834 3.78 3.78 0 01-1.084-2.706 3.78 3.78 0 011.084-2.706 3.615 3.615 0 011.228-.84 3.662 3.662 0 011.469-.278 3.5 3.5 0 011.786.47 3.43 3.43 0 011.285 1.309v-1.677h.787l.026 7.457zm-5.781-1.74c.521.49 1.214.764 1.936.764.72 0 1.414-.274 1.935-.764.268-.257.478-.566.618-.907a2.62 2.62 0 00.195-1.075 2.657 2.657 0 00-.198-1.074 2.71 2.71 0 00-.615-.908 2.797 2.797 0 00-1.936-.775c-.722 0-1.417.278-1.935.775a2.691 2.691 0 00-.615.908 2.65 2.65 0 00-.198 1.074 2.626 2.626 0 00.813 1.982zm11.93-5.815a3.894 3.894 0 012.15.584 3.48 3.48 0 011.318 1.586c.128.322.203.66.224 1.003a2.27 2.27 0 01-.08.901h-6.407c-.016.35.049.7.19 1.022.141.323.356.61.627.844.582.48 1.33.734 2.097.71a4.671 4.671 0 002.637-.799l.606.648a5.252 5.252 0 01-3.27 1.13 4.095 4.095 0 01-1.578-.243 3.979 3.979 0 01-1.349-.824 3.62 3.62 0 01-.862-1.256 3.508 3.508 0 01-.259-1.486 3.73 3.73 0 011.082-2.716 3.733 3.733 0 011.312-.852 3.861 3.861 0 011.562-.252zm0 1.003a2.727 2.727 0 00-1.02.16 2.655 2.655 0 00-.879.525c-.247.21-.448.464-.59.75a2.29 2.29 0 00-.24.913h5.274a1.745 1.745 0 00-.172-.85 2.357 2.357 0 00-.923-1.092 2.712 2.712 0 00-1.45-.406zm8.636.048v6.581h-1.1v-6.58h-2.735v-1.056h6.57v1.055h-2.735zm7.798-1.051a3.915 3.915 0 012.148.584c.595.39 1.054.942 1.318 1.587.127.32.203.659.224 1.002a2.54 2.54 0 01-.093.901h-6.376c-.016.35.049.7.19 1.022.141.323.355.611.626.845a3.11 3.11 0 002.082.71c.943 0 1.863-.279 2.635-.8l.606.648a5.285 5.285 0 01-3.28 1.13 4.09 4.09 0 01-1.57-.245 3.975 3.975 0 01-1.342-.822 3.638 3.638 0 01-.868-1.255 3.525 3.525 0 01-.265-1.486 3.732 3.732 0 011.093-2.717 3.74 3.74 0 011.312-.852 3.856 3.856 0 011.56-.252zm0 1.003a2.761 2.761 0 00-1.91.685 2.41 2.41 0 00-.58.753c-.14.285-.22.595-.237.91h5.27a1.908 1.908 0 00-.171-.85 2.434 2.434 0 00-.922-1.092 2.71 2.71 0 00-1.45-.406zm6.982 4.447L103.762 51h-.83l.953-3.273h1.237zm15.331 2.183h-1.093v-5.774l-2.746 3.193-2.733-3.193v5.773h-1.093v-7.636h.661l3.165 3.7 3.178-3.7h.661v7.636zm3.311-5.162h2.576a2.954 2.954 0 012.306.756c.449.492.694 1.14.683 1.81.007.32-.041.637-.142.939a2.497 2.497 0 01-.451.807 2.248 2.248 0 01-.927.626c-.473.161-.97.236-1.469.221h-3.697v-7.634h1.108l.013 2.475zm0 4.13h2.692c1.198 0 1.804-.521 1.804-1.563 0-1.043-.606-1.525-1.804-1.525h-2.692v3.088zm7.639 1.03h-1.108v-7.635h1.108v7.634zm7.665-7.624h3.855a2.453 2.453 0 011.783.545 1.8 1.8 0 01.451.646c.102.247.149.515.139.783.031.364-.061.727-.26 1.028-.2.301-.494.521-.833.622a1.67 1.67 0 011.061.628c.265.339.397.769.371 1.204.018.304-.032.609-.145.89a2 2 0 01-.508.734 3.11 3.11 0 01-2.034.533h-3.88v-7.613zm1.055.948v2.3h2.737c.891 0 1.343-.377 1.343-1.144 0-.766-.452-1.156-1.356-1.156h-2.724zm0 5.73h2.85c1.042 0 1.569-.43 1.569-1.3 0-.87-.527-1.3-1.569-1.3h-2.85v2.6zm10.443-6.689a3.84 3.84 0 012.71 1.118 3.81 3.81 0 010 5.4 3.84 3.84 0 01-2.71 1.117 3.715 3.715 0 01-2.721-1.107 3.732 3.732 0 01-1.111-2.71c0-1.013.404-1.984 1.122-2.7a3.841 3.841 0 012.71-1.118zm0 1.043a2.654 2.654 0 00-1.929.802 2.69 2.69 0 00-.805 1.985 2.655 2.655 0 00.805 1.986 2.563 2.563 0 001.929.788 2.729 2.729 0 002.568-1.708c.135-.339.2-.701.192-1.066a2.695 2.695 0 00-.805-1.985 2.665 2.665 0 00-1.98-.802h.025zm12.593 6.594h-1.036v-6.582h-4.475v6.581h-1.06v-7.636h6.546l.025 7.636zm5.996-5.917l-2.654 5.916h-1.152l3.496-7.636h.66l3.509 7.636h-1.191l-2.668-5.916zm8.804-1.72a3.87 3.87 0 011.803.463 3.83 3.83 0 011.373 1.248 3.79 3.79 0 01.346 3.569 3.831 3.831 0 01-1.108 1.484 3.87 3.87 0 01-3.542.715 3.856 3.856 0 01-1.605-.937 3.728 3.728 0 01-1.117-2.711c0-1.013.406-1.984 1.128-2.7a3.865 3.865 0 012.722-1.119v-.012zm0 1.043a2.652 2.652 0 00-1.937.802 2.825 2.825 0 000 3.971 2.799 2.799 0 003.85 0 2.656 2.656 0 00.808-1.985 2.679 2.679 0 00-.808-1.986 2.669 2.669 0 00-1.925-.802h.012zM196.009 51h-1.064v-1.584h-10.981v-7.143h1.064v6.167h3.757v-6.167h1.077v6.167h3.756v-6.167h1.064v6.167h1.327V51zm8.761-1.168h-.787v-1.677a3.294 3.294 0 01-1.291 1.27 3.408 3.408 0 01-1.806.483 3.653 3.653 0 01-1.468-.271 3.605 3.605 0 01-1.229-.834 3.778 3.778 0 01-1.084-2.706 3.778 3.778 0 011.084-2.706 3.612 3.612 0 011.228-.84 3.666 3.666 0 011.469-.278 3.502 3.502 0 011.786.47 3.43 3.43 0 011.285 1.309v-1.677h.787l.026 7.457zm-5.781-1.74c.521.49 1.214.764 1.935.764.722 0 1.415-.274 1.936-.764a2.647 2.647 0 00.813-1.982 2.67 2.67 0 00-.813-1.982 2.799 2.799 0 00-1.936-.775c-.723 0-1.417.278-1.935.775a2.69 2.69 0 00-.615.908 2.65 2.65 0 00-.198 1.074 2.623 2.623 0 00.813 1.982zm11.936-5.815a3.883 3.883 0 012.146.584 3.4 3.4 0 011.316 1.587c.128.32.203.66.224 1.002.034.303.007.609-.079.901h-6.397c-.016.35.049.7.19 1.022.141.323.355.611.626.844a3.14 3.14 0 002.093.711 4.739 4.739 0 002.632-.8l.593.648a5.24 5.24 0 01-3.265 1.13 4.082 4.082 0 01-1.575-.243 3.973 3.973 0 01-1.347-.824 3.624 3.624 0 01-.861-1.256 3.518 3.518 0 01-.258-1.485 3.731 3.731 0 011.08-2.716c.37-.373.819-.665 1.316-.855a3.849 3.849 0 011.566-.25zm0 1.003a2.726 2.726 0 00-1.019.16 2.645 2.645 0 00-.876.526 2.357 2.357 0 00-.59.75 2.296 2.296 0 00-.24.912h5.266a1.752 1.752 0 00-.172-.85 2.353 2.353 0 00-.921-1.092 2.702 2.702 0 00-1.448-.406zm13.555 6.63h-1.082v-5.774l-2.75 3.193-2.751-3.193v5.773h-1.082v-7.636h.649l3.184 3.7 3.183-3.7h.649v7.636zM229.089 39l-1.438 3.273h-.981l.968-3.273h1.451zm1.961 0l-1.437 3.273h-.981l.967-3.273h1.451zM0 42.273L1.438 39h.98l-.967 3.273H0zm1.962 0L3.399 39h.981l-.967 3.273H1.962z" fill="#000"/></svg>