<svg width="14" height="21" fill="none" xmlns="http://www.w3.org/2000/svg"><path fill-rule="evenodd" clip-rule="evenodd" d="M12.5 7.397c0 1.512-.807 3.822-2.132 6.22-1.007 1.823-2.22 3.53-3.368 4.78-1.147-1.25-2.361-2.957-3.368-4.78C2.307 11.219 1.5 8.909 1.5 7.397 1.5 4.437 3.941 2 7 2s5.5 2.437 5.5 5.397zm1.5 0c0 3.808-3.85 10.344-7 13.103-3.15-2.759-7-9.295-7-13.103C0 3.587 3.134.5 7 .5s7 3.088 7 6.897zm-5 .051a2 2 0 11-4 0 2 2 0 014 0zm1.5 0a3.5 3.5 0 11-7 0 3.5 3.5 0 017 0z" fill="#050103"/></svg>