<svg width="40" height="40" fill="none" xmlns="http://www.w3.org/2000/svg"><path fill-rule="evenodd" clip-rule="evenodd" d="M26.178 15.488a1.666 1.666 0 010 2.357l-6.666 6.667c-.651.65-1.706.65-2.357 0l-3.334-3.334a1.667 1.667 0 112.357-2.357l2.155 2.155 5.489-5.488c.65-.65 1.706-.65 2.357 0z" fill="#545454"/><path fill-rule="evenodd" clip-rule="evenodd" d="M20 6.666c-7.364 0-13.333 5.97-13.333 13.334 0 7.363 5.97 13.333 13.333 13.333 7.364 0 13.333-5.97 13.333-13.333 0-7.364-5.97-13.334-13.333-13.334zM3.333 20c0-9.205 7.462-16.667 16.667-16.667 9.205 0 16.667 7.462 16.667 16.667 0 9.204-7.462 16.666-16.667 16.666-9.205 0-16.667-7.462-16.667-16.666z" fill="#545454"/></svg>