<svg width="75" height="75" viewBox="0 0 75 75" fill="none" xmlns="http://www.w3.org/2000/svg">
<path d="M28.8129 57.2125C32.2051 54.6683 42.6645 49.0146 45.4913 45.6224C48.3182 42.2302 51.4277 37.9899 51.145 26.6825C50.8623 15.3751 50.297 6.89449 55.9507 4.633C55.9507 4.633 60.191 4.06763 59.9083 1.80615C59.6256 -0.455338 56.2334 -0.172653 54.2546 2.37152C51.9931 4.91569 50.297 7.74254 49.7316 17.6365C49.1662 27.5305 47.7528 38.2726 42.0991 42.5129C36.4454 46.7531 26.5514 53.2549 22.8765 56.3645C19.4842 59.474 16.092 61.1701 12.9825 60.6047C9.87294 60.0394 3.37117 52.4069 5.06728 37.4245C5.06728 37.4245 5.91534 34.5977 4.21923 34.315C2.52311 34.0323 1.95774 37.1418 1.95774 37.1418C1.95774 37.1418 -0.303743 47.8839 1.95774 56.9298C4.21922 65.9758 6.7634 72.1948 11.569 73.6083C11.569 73.6083 14.9613 73.891 15.8093 73.6083C16.9401 73.3256 18.6362 72.4775 20.0496 69.0853C21.7457 65.6931 25.138 59.7567 28.8129 57.2125ZM42.3818 0.675404C42.3818 0.675404 28.5302 -0.738025 14.1132 14.2443C14.1132 14.2443 6.76339 23.2902 6.19802 27.8132C5.63265 32.6189 5.91534 33.1842 5.91534 33.1842C5.91534 33.1842 11.0037 4.633 42.3818 0.675404ZM74.6079 69.0853C74.3252 68.5199 73.4772 69.368 73.4772 69.368C69.8023 71.0641 65.562 71.6295 64.7139 71.3468C63.5832 71.0641 64.7139 69.6507 64.9966 68.8026C65.2793 67.9546 64.1486 67.6719 63.5832 68.5199C60.4736 71.9122 50.297 73.6083 57.9295 64.845C60.191 62.3008 63.8659 60.8874 65.2793 61.7355C66.6927 62.3008 66.1273 63.997 65.562 64.845C65.562 64.845 64.1486 66.2584 64.9966 66.5411C65.8447 66.8238 66.6927 65.9758 66.6927 65.9758C70.3676 62.0182 66.9754 55.5164 57.0814 63.4316C51.7104 67.6719 51.7104 73.0429 54.5372 73.6083C57.3641 74.1736 62.1698 71.0641 62.1698 71.0641C61.8871 71.6295 61.8871 72.7602 63.3005 73.3256C65.2793 73.891 71.4984 71.0641 73.1945 70.216C74.8906 69.368 74.6079 69.0853 74.6079 69.0853ZM35.0319 56.9298C34.1839 58.0606 34.1839 59.474 35.0319 60.0394C35.88 60.6047 37.0107 60.0394 37.8588 58.6259C38.7069 57.4952 38.7069 56.0818 37.8588 55.5164C37.0107 55.2337 35.88 55.7991 35.0319 56.9298ZM47.4701 67.6719C48.0355 65.9758 52.5584 58.0606 52.5584 58.0606C52.5584 58.0606 56.7987 58.0606 58.2122 57.7779C59.6256 57.4952 58.2122 56.9298 58.2122 56.9298L53.4065 56.6471C53.4065 56.6471 57.9295 48.4493 62.4524 43.9263C63.3005 43.0782 65.562 41.3821 62.4524 41.6648C59.6256 41.9475 57.9295 44.7743 57.6468 45.6224C57.3641 46.4705 51.9931 56.3645 51.9931 56.3645L47.1874 55.7991C47.1874 55.7991 46.0567 55.7991 46.0567 56.9298C46.0567 57.2125 46.0567 57.2125 46.0567 57.2125C46.0567 57.4952 46.3394 57.7779 46.6221 57.7779L50.8623 58.0606L44.9259 67.6719C44.9259 67.6719 40.1203 69.6507 36.4454 70.7814C32.7705 71.9122 30.7917 70.7814 34.7493 63.997C35.3146 63.1489 34.4666 62.0182 33.6185 62.0182C32.7705 62.0182 32.2051 64.5623 32.2051 64.5623C32.2051 64.5623 31.357 66.8238 28.2475 67.9546C27.1168 68.5199 24.2899 68.5199 24.8553 69.6507C25.4206 70.216 30.7917 67.9546 30.7917 67.9546C30.7917 67.9546 28.5302 72.4775 29.6609 73.3256C30.7917 74.4563 34.7493 72.7602 34.7493 72.7602L44.3606 69.0853C44.3606 69.0853 42.6645 72.4775 44.3606 73.6083C46.0567 74.739 50.5796 73.6083 51.145 71.9122C52.5584 68.8026 44.9259 74.4563 47.4701 67.6719Z" fill="url(#paint0_linear_47_948)"/>
<defs>
<linearGradient id="paint0_linear_47_948" x1="37.9292" y1="73.9565" x2="37.9292" y2="0.605298" gradientUnits="userSpaceOnUse">
<stop stop-color="#005454"/>
<stop offset="1" stop-color="#BBCF00"/>
</linearGradient>
</defs>
</svg>
